<mxfile host="app.diagrams.net" modified="2022-07-01T02:38:39.034Z" agent="5.0 (Windows NT 10.0; Win64; x64) AppleWebKit/537.36 (KHTML, like Gecko) Chrome/103.0.0.0 Safari/537.36" etag="qBXYmzg3XnXT7qiMZxPR" version="20.0.3" type="github">
  <diagram id="3rsK4sRMyDqufHuRaAZe" name="Page-1">
    <mxGraphModel dx="2249" dy="762" grid="1" gridSize="10" guides="1" tooltips="1" connect="1" arrows="1" fold="1" page="1" pageScale="1" pageWidth="827" pageHeight="1169" math="0" shadow="0">
      <root>
        <mxCell id="0" />
        <mxCell id="1" parent="0" />
        <mxCell id="U90KXrBJ-N6k7Ng19d0M-95" value="" style="rounded=0;whiteSpace=wrap;html=1;fillColor=none;" vertex="1" parent="1">
          <mxGeometry x="90" y="750" width="720" height="220" as="geometry" />
        </mxCell>
        <mxCell id="U90KXrBJ-N6k7Ng19d0M-65" value="" style="rounded=0;whiteSpace=wrap;html=1;fillColor=none;" vertex="1" parent="1">
          <mxGeometry x="90" y="670" width="720" height="70" as="geometry" />
        </mxCell>
        <mxCell id="U90KXrBJ-N6k7Ng19d0M-1" value="" style="rounded=0;whiteSpace=wrap;html=1;fillColor=none;" vertex="1" parent="1">
          <mxGeometry x="80" y="340" width="720" height="70" as="geometry" />
        </mxCell>
        <mxCell id="U90KXrBJ-N6k7Ng19d0M-49" value="" style="rounded=0;whiteSpace=wrap;html=1;fillColor=none;" vertex="1" parent="1">
          <mxGeometry x="80" y="420" width="720" height="220" as="geometry" />
        </mxCell>
        <mxCell id="U90KXrBJ-N6k7Ng19d0M-47" style="edgeStyle=orthogonalEdgeStyle;rounded=0;orthogonalLoop=1;jettySize=auto;html=1;entryX=0.5;entryY=0;entryDx=0;entryDy=0;fontSize=8;" edge="1" parent="1" source="U90KXrBJ-N6k7Ng19d0M-1" target="U90KXrBJ-N6k7Ng19d0M-40">
          <mxGeometry relative="1" as="geometry" />
        </mxCell>
        <mxCell id="U90KXrBJ-N6k7Ng19d0M-48" style="edgeStyle=orthogonalEdgeStyle;rounded=0;orthogonalLoop=1;jettySize=auto;html=1;entryX=0.5;entryY=0;entryDx=0;entryDy=0;fontSize=8;" edge="1" parent="1" source="U90KXrBJ-N6k7Ng19d0M-1" target="U90KXrBJ-N6k7Ng19d0M-20">
          <mxGeometry relative="1" as="geometry" />
        </mxCell>
        <mxCell id="U90KXrBJ-N6k7Ng19d0M-61" style="edgeStyle=orthogonalEdgeStyle;rounded=0;orthogonalLoop=1;jettySize=auto;html=1;entryX=0;entryY=0.5;entryDx=0;entryDy=0;fontSize=12;" edge="1" parent="1" source="U90KXrBJ-N6k7Ng19d0M-1" target="U90KXrBJ-N6k7Ng19d0M-60">
          <mxGeometry relative="1" as="geometry" />
        </mxCell>
        <mxCell id="U90KXrBJ-N6k7Ng19d0M-2" value="前一个区块的哈希值" style="rounded=0;whiteSpace=wrap;html=1;fillColor=default;" vertex="1" parent="1">
          <mxGeometry x="135" y="370" width="130" height="30" as="geometry" />
        </mxCell>
        <mxCell id="U90KXrBJ-N6k7Ng19d0M-4" value="默克树根" style="rounded=0;whiteSpace=wrap;html=1;fillColor=default;" vertex="1" parent="1">
          <mxGeometry x="408" y="370" width="70" height="30" as="geometry" />
        </mxCell>
        <mxCell id="U90KXrBJ-N6k7Ng19d0M-5" value="时间戳" style="rounded=0;whiteSpace=wrap;html=1;fillColor=default;" vertex="1" parent="1">
          <mxGeometry x="580" y="370" width="70" height="30" as="geometry" />
        </mxCell>
        <mxCell id="U90KXrBJ-N6k7Ng19d0M-7" value="tx1`" style="rounded=0;whiteSpace=wrap;html=1;fillColor=default;" vertex="1" parent="1">
          <mxGeometry x="100" y="590" width="30" height="30" as="geometry" />
        </mxCell>
        <mxCell id="U90KXrBJ-N6k7Ng19d0M-8" value="&lt;font style=&quot;font-size: 8px;&quot;&gt;hash_1_block_1&lt;/font&gt;" style="rounded=0;whiteSpace=wrap;html=1;fillColor=default;" vertex="1" parent="1">
          <mxGeometry x="150" y="590" width="100" height="30" as="geometry" />
        </mxCell>
        <mxCell id="U90KXrBJ-N6k7Ng19d0M-24" style="edgeStyle=orthogonalEdgeStyle;rounded=0;orthogonalLoop=1;jettySize=auto;html=1;entryX=0.5;entryY=0;entryDx=0;entryDy=0;fontSize=8;" edge="1" parent="1" source="U90KXrBJ-N6k7Ng19d0M-9" target="U90KXrBJ-N6k7Ng19d0M-7">
          <mxGeometry relative="1" as="geometry">
            <Array as="points">
              <mxPoint x="160" y="570" />
              <mxPoint x="115" y="570" />
            </Array>
          </mxGeometry>
        </mxCell>
        <mxCell id="U90KXrBJ-N6k7Ng19d0M-25" style="edgeStyle=orthogonalEdgeStyle;rounded=0;orthogonalLoop=1;jettySize=auto;html=1;fontSize=8;" edge="1" parent="1" source="U90KXrBJ-N6k7Ng19d0M-9" target="U90KXrBJ-N6k7Ng19d0M-8">
          <mxGeometry relative="1" as="geometry">
            <Array as="points">
              <mxPoint x="160" y="570" />
              <mxPoint x="200" y="570" />
            </Array>
          </mxGeometry>
        </mxCell>
        <mxCell id="U90KXrBJ-N6k7Ng19d0M-9" value="hash111" style="rounded=0;whiteSpace=wrap;html=1;fillColor=default;" vertex="1" parent="1">
          <mxGeometry x="110" y="530" width="100" height="30" as="geometry" />
        </mxCell>
        <mxCell id="U90KXrBJ-N6k7Ng19d0M-31" style="edgeStyle=orthogonalEdgeStyle;rounded=0;orthogonalLoop=1;jettySize=auto;html=1;entryX=0.5;entryY=0;entryDx=0;entryDy=0;fontSize=8;" edge="1" parent="1" source="U90KXrBJ-N6k7Ng19d0M-20" target="U90KXrBJ-N6k7Ng19d0M-9">
          <mxGeometry relative="1" as="geometry" />
        </mxCell>
        <mxCell id="U90KXrBJ-N6k7Ng19d0M-32" style="edgeStyle=orthogonalEdgeStyle;rounded=0;orthogonalLoop=1;jettySize=auto;html=1;entryX=0.5;entryY=0;entryDx=0;entryDy=0;fontSize=8;" edge="1" parent="1" source="U90KXrBJ-N6k7Ng19d0M-20" target="U90KXrBJ-N6k7Ng19d0M-30">
          <mxGeometry relative="1" as="geometry" />
        </mxCell>
        <mxCell id="U90KXrBJ-N6k7Ng19d0M-20" value="hash111_221" style="rounded=0;whiteSpace=wrap;html=1;fillColor=default;" vertex="1" parent="1">
          <mxGeometry x="190" y="460" width="100" height="30" as="geometry" />
        </mxCell>
        <mxCell id="U90KXrBJ-N6k7Ng19d0M-26" value="tx2`" style="rounded=0;whiteSpace=wrap;html=1;fillColor=default;" vertex="1" parent="1">
          <mxGeometry x="280" y="590" width="30" height="30" as="geometry" />
        </mxCell>
        <mxCell id="U90KXrBJ-N6k7Ng19d0M-27" value="&lt;font style=&quot;font-size: 8px;&quot;&gt;hash_2_block_2&lt;/font&gt;" style="rounded=0;whiteSpace=wrap;html=1;fillColor=default;" vertex="1" parent="1">
          <mxGeometry x="330" y="590" width="100" height="30" as="geometry" />
        </mxCell>
        <mxCell id="U90KXrBJ-N6k7Ng19d0M-28" style="edgeStyle=orthogonalEdgeStyle;rounded=0;orthogonalLoop=1;jettySize=auto;html=1;entryX=0.5;entryY=0;entryDx=0;entryDy=0;fontSize=8;" edge="1" parent="1" source="U90KXrBJ-N6k7Ng19d0M-30" target="U90KXrBJ-N6k7Ng19d0M-26">
          <mxGeometry relative="1" as="geometry">
            <Array as="points">
              <mxPoint x="340" y="570" />
              <mxPoint x="295" y="570" />
            </Array>
          </mxGeometry>
        </mxCell>
        <mxCell id="U90KXrBJ-N6k7Ng19d0M-29" style="edgeStyle=orthogonalEdgeStyle;rounded=0;orthogonalLoop=1;jettySize=auto;html=1;fontSize=8;" edge="1" parent="1" source="U90KXrBJ-N6k7Ng19d0M-30" target="U90KXrBJ-N6k7Ng19d0M-27">
          <mxGeometry relative="1" as="geometry">
            <Array as="points">
              <mxPoint x="340" y="570" />
              <mxPoint x="380" y="570" />
            </Array>
          </mxGeometry>
        </mxCell>
        <mxCell id="U90KXrBJ-N6k7Ng19d0M-30" value="hash221" style="rounded=0;whiteSpace=wrap;html=1;fillColor=default;" vertex="1" parent="1">
          <mxGeometry x="290" y="530" width="100" height="30" as="geometry" />
        </mxCell>
        <mxCell id="U90KXrBJ-N6k7Ng19d0M-33" value="tx3`" style="rounded=0;whiteSpace=wrap;html=1;fillColor=default;" vertex="1" parent="1">
          <mxGeometry x="460" y="590" width="30" height="30" as="geometry" />
        </mxCell>
        <mxCell id="U90KXrBJ-N6k7Ng19d0M-34" value="&lt;font style=&quot;font-size: 8px;&quot;&gt;hash_2_block_2&lt;/font&gt;" style="rounded=0;whiteSpace=wrap;html=1;fillColor=default;" vertex="1" parent="1">
          <mxGeometry x="510" y="590" width="100" height="30" as="geometry" />
        </mxCell>
        <mxCell id="U90KXrBJ-N6k7Ng19d0M-35" style="edgeStyle=orthogonalEdgeStyle;rounded=0;orthogonalLoop=1;jettySize=auto;html=1;entryX=0.5;entryY=0;entryDx=0;entryDy=0;fontSize=8;" edge="1" parent="1" source="U90KXrBJ-N6k7Ng19d0M-37" target="U90KXrBJ-N6k7Ng19d0M-33">
          <mxGeometry relative="1" as="geometry">
            <Array as="points">
              <mxPoint x="520" y="570" />
              <mxPoint x="475" y="570" />
            </Array>
          </mxGeometry>
        </mxCell>
        <mxCell id="U90KXrBJ-N6k7Ng19d0M-36" style="edgeStyle=orthogonalEdgeStyle;rounded=0;orthogonalLoop=1;jettySize=auto;html=1;fontSize=8;" edge="1" parent="1" source="U90KXrBJ-N6k7Ng19d0M-37" target="U90KXrBJ-N6k7Ng19d0M-34">
          <mxGeometry relative="1" as="geometry">
            <Array as="points">
              <mxPoint x="520" y="570" />
              <mxPoint x="560" y="570" />
            </Array>
          </mxGeometry>
        </mxCell>
        <mxCell id="U90KXrBJ-N6k7Ng19d0M-37" value="hash322" style="rounded=0;whiteSpace=wrap;html=1;fillColor=default;" vertex="1" parent="1">
          <mxGeometry x="470" y="530" width="100" height="30" as="geometry" />
        </mxCell>
        <mxCell id="U90KXrBJ-N6k7Ng19d0M-38" style="edgeStyle=orthogonalEdgeStyle;rounded=0;orthogonalLoop=1;jettySize=auto;html=1;entryX=0.5;entryY=0;entryDx=0;entryDy=0;fontSize=8;" edge="1" parent="1" source="U90KXrBJ-N6k7Ng19d0M-40" target="U90KXrBJ-N6k7Ng19d0M-37">
          <mxGeometry relative="1" as="geometry" />
        </mxCell>
        <mxCell id="U90KXrBJ-N6k7Ng19d0M-39" style="edgeStyle=orthogonalEdgeStyle;rounded=0;orthogonalLoop=1;jettySize=auto;html=1;entryX=0.5;entryY=0;entryDx=0;entryDy=0;fontSize=8;" edge="1" parent="1" source="U90KXrBJ-N6k7Ng19d0M-40" target="U90KXrBJ-N6k7Ng19d0M-45">
          <mxGeometry relative="1" as="geometry" />
        </mxCell>
        <mxCell id="U90KXrBJ-N6k7Ng19d0M-40" value="hash322_412" style="rounded=0;whiteSpace=wrap;html=1;fillColor=default;" vertex="1" parent="1">
          <mxGeometry x="550" y="460" width="100" height="30" as="geometry" />
        </mxCell>
        <mxCell id="U90KXrBJ-N6k7Ng19d0M-41" value="tx4`" style="rounded=0;whiteSpace=wrap;html=1;fillColor=default;" vertex="1" parent="1">
          <mxGeometry x="640" y="590" width="30" height="30" as="geometry" />
        </mxCell>
        <mxCell id="U90KXrBJ-N6k7Ng19d0M-42" value="&lt;font style=&quot;font-size: 8px;&quot;&gt;hash_1_block_2&lt;/font&gt;" style="rounded=0;whiteSpace=wrap;html=1;fillColor=default;" vertex="1" parent="1">
          <mxGeometry x="690" y="590" width="100" height="30" as="geometry" />
        </mxCell>
        <mxCell id="U90KXrBJ-N6k7Ng19d0M-43" style="edgeStyle=orthogonalEdgeStyle;rounded=0;orthogonalLoop=1;jettySize=auto;html=1;entryX=0.5;entryY=0;entryDx=0;entryDy=0;fontSize=8;" edge="1" parent="1" source="U90KXrBJ-N6k7Ng19d0M-45" target="U90KXrBJ-N6k7Ng19d0M-41">
          <mxGeometry relative="1" as="geometry">
            <Array as="points">
              <mxPoint x="700" y="570" />
              <mxPoint x="655" y="570" />
            </Array>
          </mxGeometry>
        </mxCell>
        <mxCell id="U90KXrBJ-N6k7Ng19d0M-44" style="edgeStyle=orthogonalEdgeStyle;rounded=0;orthogonalLoop=1;jettySize=auto;html=1;fontSize=8;" edge="1" parent="1" source="U90KXrBJ-N6k7Ng19d0M-45" target="U90KXrBJ-N6k7Ng19d0M-42">
          <mxGeometry relative="1" as="geometry">
            <Array as="points">
              <mxPoint x="700" y="570" />
              <mxPoint x="740" y="570" />
            </Array>
          </mxGeometry>
        </mxCell>
        <mxCell id="U90KXrBJ-N6k7Ng19d0M-45" value="hash412" style="rounded=0;whiteSpace=wrap;html=1;fillColor=default;" vertex="1" parent="1">
          <mxGeometry x="650" y="530" width="100" height="30" as="geometry" />
        </mxCell>
        <mxCell id="U90KXrBJ-N6k7Ng19d0M-50" value="&lt;span style=&quot;font-size: 16px;&quot;&gt;&lt;b&gt;区块体&lt;/b&gt;&lt;/span&gt;" style="text;html=1;strokeColor=none;fillColor=none;align=center;verticalAlign=middle;whiteSpace=wrap;rounded=0;" vertex="1" parent="1">
          <mxGeometry x="80" y="420" width="120" height="30" as="geometry" />
        </mxCell>
        <mxCell id="U90KXrBJ-N6k7Ng19d0M-51" value="&lt;span style=&quot;font-size: 16px;&quot;&gt;&lt;b&gt;区块头&lt;/b&gt;&lt;/span&gt;" style="text;html=1;strokeColor=none;fillColor=none;align=center;verticalAlign=middle;whiteSpace=wrap;rounded=0;" vertex="1" parent="1">
          <mxGeometry x="80" y="340" width="120" height="30" as="geometry" />
        </mxCell>
        <mxCell id="U90KXrBJ-N6k7Ng19d0M-58" style="edgeStyle=orthogonalEdgeStyle;rounded=0;orthogonalLoop=1;jettySize=auto;html=1;entryX=0;entryY=0.5;entryDx=0;entryDy=0;fontSize=12;" edge="1" parent="1" source="U90KXrBJ-N6k7Ng19d0M-57" target="U90KXrBJ-N6k7Ng19d0M-1">
          <mxGeometry relative="1" as="geometry" />
        </mxCell>
        <mxCell id="U90KXrBJ-N6k7Ng19d0M-57" value="&lt;font style=&quot;font-size: 12px;&quot;&gt;前一个区块&lt;/font&gt;" style="rounded=0;whiteSpace=wrap;html=1;fontSize=16;fillColor=default;" vertex="1" parent="1">
          <mxGeometry x="-40" y="345" width="70" height="60" as="geometry" />
        </mxCell>
        <mxCell id="U90KXrBJ-N6k7Ng19d0M-60" value="&lt;font style=&quot;font-size: 12px;&quot;&gt;前一个区块&lt;/font&gt;" style="rounded=0;whiteSpace=wrap;html=1;fontSize=16;fillColor=default;" vertex="1" parent="1">
          <mxGeometry x="850" y="345" width="70" height="60" as="geometry" />
        </mxCell>
        <mxCell id="U90KXrBJ-N6k7Ng19d0M-62" style="edgeStyle=orthogonalEdgeStyle;rounded=0;orthogonalLoop=1;jettySize=auto;html=1;entryX=0.5;entryY=0;entryDx=0;entryDy=0;fontSize=8;" edge="1" parent="1" source="U90KXrBJ-N6k7Ng19d0M-65" target="U90KXrBJ-N6k7Ng19d0M-89">
          <mxGeometry relative="1" as="geometry" />
        </mxCell>
        <mxCell id="U90KXrBJ-N6k7Ng19d0M-63" style="edgeStyle=orthogonalEdgeStyle;rounded=0;orthogonalLoop=1;jettySize=auto;html=1;entryX=0.5;entryY=0;entryDx=0;entryDy=0;fontSize=8;" edge="1" parent="1" source="U90KXrBJ-N6k7Ng19d0M-65" target="U90KXrBJ-N6k7Ng19d0M-76">
          <mxGeometry relative="1" as="geometry" />
        </mxCell>
        <mxCell id="U90KXrBJ-N6k7Ng19d0M-64" style="edgeStyle=orthogonalEdgeStyle;rounded=0;orthogonalLoop=1;jettySize=auto;html=1;entryX=0;entryY=0.5;entryDx=0;entryDy=0;fontSize=12;" edge="1" parent="1" source="U90KXrBJ-N6k7Ng19d0M-65" target="U90KXrBJ-N6k7Ng19d0M-100">
          <mxGeometry relative="1" as="geometry" />
        </mxCell>
        <mxCell id="U90KXrBJ-N6k7Ng19d0M-66" value="前一个区块的哈希值" style="rounded=0;whiteSpace=wrap;html=1;fillColor=default;" vertex="1" parent="1">
          <mxGeometry x="145" y="700" width="130" height="30" as="geometry" />
        </mxCell>
        <mxCell id="U90KXrBJ-N6k7Ng19d0M-67" value="默克树根" style="rounded=0;whiteSpace=wrap;html=1;fillColor=default;" vertex="1" parent="1">
          <mxGeometry x="418" y="700" width="70" height="30" as="geometry" />
        </mxCell>
        <mxCell id="U90KXrBJ-N6k7Ng19d0M-68" value="时间戳" style="rounded=0;whiteSpace=wrap;html=1;fillColor=default;" vertex="1" parent="1">
          <mxGeometry x="590" y="700" width="70" height="30" as="geometry" />
        </mxCell>
        <mxCell id="U90KXrBJ-N6k7Ng19d0M-69" value="tx1" style="rounded=0;whiteSpace=wrap;html=1;fillColor=default;" vertex="1" parent="1">
          <mxGeometry x="210" y="910" width="30" height="30" as="geometry" />
        </mxCell>
        <mxCell id="U90KXrBJ-N6k7Ng19d0M-103" style="edgeStyle=orthogonalEdgeStyle;rounded=0;orthogonalLoop=1;jettySize=auto;html=1;entryX=0.5;entryY=0;entryDx=0;entryDy=0;fontSize=20;" edge="1" parent="1" source="U90KXrBJ-N6k7Ng19d0M-73" target="U90KXrBJ-N6k7Ng19d0M-69">
          <mxGeometry relative="1" as="geometry" />
        </mxCell>
        <mxCell id="U90KXrBJ-N6k7Ng19d0M-73" value="hash1" style="rounded=0;whiteSpace=wrap;html=1;fillColor=default;" vertex="1" parent="1">
          <mxGeometry x="200" y="860" width="50" height="30" as="geometry" />
        </mxCell>
        <mxCell id="U90KXrBJ-N6k7Ng19d0M-74" style="edgeStyle=orthogonalEdgeStyle;rounded=0;orthogonalLoop=1;jettySize=auto;html=1;entryX=0.5;entryY=0;entryDx=0;entryDy=0;fontSize=8;" edge="1" parent="1" source="U90KXrBJ-N6k7Ng19d0M-76" target="U90KXrBJ-N6k7Ng19d0M-73">
          <mxGeometry relative="1" as="geometry" />
        </mxCell>
        <mxCell id="U90KXrBJ-N6k7Ng19d0M-114" style="edgeStyle=orthogonalEdgeStyle;rounded=0;orthogonalLoop=1;jettySize=auto;html=1;entryX=0.5;entryY=0;entryDx=0;entryDy=0;fontSize=20;" edge="1" parent="1" source="U90KXrBJ-N6k7Ng19d0M-76" target="U90KXrBJ-N6k7Ng19d0M-112">
          <mxGeometry relative="1" as="geometry" />
        </mxCell>
        <mxCell id="U90KXrBJ-N6k7Ng19d0M-76" value="hash111_221" style="rounded=0;whiteSpace=wrap;html=1;fillColor=default;" vertex="1" parent="1">
          <mxGeometry x="200" y="790" width="100" height="30" as="geometry" />
        </mxCell>
        <mxCell id="U90KXrBJ-N6k7Ng19d0M-82" value="tx1`" style="rounded=0;whiteSpace=wrap;html=1;fillColor=default;" vertex="1" parent="1">
          <mxGeometry x="470" y="920" width="30" height="30" as="geometry" />
        </mxCell>
        <mxCell id="U90KXrBJ-N6k7Ng19d0M-84" style="edgeStyle=orthogonalEdgeStyle;rounded=0;orthogonalLoop=1;jettySize=auto;html=1;entryX=0.5;entryY=0;entryDx=0;entryDy=0;fontSize=8;" edge="1" parent="1" source="U90KXrBJ-N6k7Ng19d0M-86" target="U90KXrBJ-N6k7Ng19d0M-82">
          <mxGeometry relative="1" as="geometry">
            <Array as="points">
              <mxPoint x="530" y="900" />
              <mxPoint x="485" y="900" />
            </Array>
          </mxGeometry>
        </mxCell>
        <mxCell id="U90KXrBJ-N6k7Ng19d0M-86" value="hash111" style="rounded=0;whiteSpace=wrap;html=1;fillColor=default;" vertex="1" parent="1">
          <mxGeometry x="480" y="860" width="100" height="30" as="geometry" />
        </mxCell>
        <mxCell id="U90KXrBJ-N6k7Ng19d0M-87" style="edgeStyle=orthogonalEdgeStyle;rounded=0;orthogonalLoop=1;jettySize=auto;html=1;entryX=0.5;entryY=0;entryDx=0;entryDy=0;fontSize=8;" edge="1" parent="1" source="U90KXrBJ-N6k7Ng19d0M-89" target="U90KXrBJ-N6k7Ng19d0M-86">
          <mxGeometry relative="1" as="geometry" />
        </mxCell>
        <mxCell id="U90KXrBJ-N6k7Ng19d0M-88" style="edgeStyle=orthogonalEdgeStyle;rounded=0;orthogonalLoop=1;jettySize=auto;html=1;entryX=0.5;entryY=0;entryDx=0;entryDy=0;fontSize=8;" edge="1" parent="1" source="U90KXrBJ-N6k7Ng19d0M-89" target="U90KXrBJ-N6k7Ng19d0M-94">
          <mxGeometry relative="1" as="geometry" />
        </mxCell>
        <mxCell id="U90KXrBJ-N6k7Ng19d0M-89" value="hash111_221" style="rounded=0;whiteSpace=wrap;html=1;fillColor=default;" vertex="1" parent="1">
          <mxGeometry x="560" y="790" width="100" height="30" as="geometry" />
        </mxCell>
        <mxCell id="U90KXrBJ-N6k7Ng19d0M-90" value="tx2`" style="rounded=0;whiteSpace=wrap;html=1;fillColor=default;" vertex="1" parent="1">
          <mxGeometry x="650" y="920" width="30" height="30" as="geometry" />
        </mxCell>
        <mxCell id="U90KXrBJ-N6k7Ng19d0M-92" style="edgeStyle=orthogonalEdgeStyle;rounded=0;orthogonalLoop=1;jettySize=auto;html=1;entryX=0.5;entryY=0;entryDx=0;entryDy=0;fontSize=8;" edge="1" parent="1" source="U90KXrBJ-N6k7Ng19d0M-94" target="U90KXrBJ-N6k7Ng19d0M-90">
          <mxGeometry relative="1" as="geometry">
            <Array as="points">
              <mxPoint x="710" y="900" />
              <mxPoint x="665" y="900" />
            </Array>
          </mxGeometry>
        </mxCell>
        <mxCell id="U90KXrBJ-N6k7Ng19d0M-94" value="hash221" style="rounded=0;whiteSpace=wrap;html=1;fillColor=default;" vertex="1" parent="1">
          <mxGeometry x="660" y="860" width="100" height="30" as="geometry" />
        </mxCell>
        <mxCell id="U90KXrBJ-N6k7Ng19d0M-96" value="&lt;span style=&quot;font-size: 16px;&quot;&gt;&lt;b&gt;区块体&lt;/b&gt;&lt;/span&gt;" style="text;html=1;strokeColor=none;fillColor=none;align=center;verticalAlign=middle;whiteSpace=wrap;rounded=0;" vertex="1" parent="1">
          <mxGeometry x="90" y="750" width="120" height="30" as="geometry" />
        </mxCell>
        <mxCell id="U90KXrBJ-N6k7Ng19d0M-97" value="&lt;span style=&quot;font-size: 16px;&quot;&gt;&lt;b&gt;区块头&lt;/b&gt;&lt;/span&gt;" style="text;html=1;strokeColor=none;fillColor=none;align=center;verticalAlign=middle;whiteSpace=wrap;rounded=0;" vertex="1" parent="1">
          <mxGeometry x="90" y="670" width="120" height="30" as="geometry" />
        </mxCell>
        <mxCell id="U90KXrBJ-N6k7Ng19d0M-98" style="edgeStyle=orthogonalEdgeStyle;rounded=0;orthogonalLoop=1;jettySize=auto;html=1;entryX=0;entryY=0.5;entryDx=0;entryDy=0;fontSize=12;" edge="1" parent="1" source="U90KXrBJ-N6k7Ng19d0M-99" target="U90KXrBJ-N6k7Ng19d0M-65">
          <mxGeometry relative="1" as="geometry" />
        </mxCell>
        <mxCell id="U90KXrBJ-N6k7Ng19d0M-99" value="&lt;font style=&quot;font-size: 12px;&quot;&gt;前一个区块&lt;/font&gt;" style="rounded=0;whiteSpace=wrap;html=1;fontSize=16;fillColor=default;" vertex="1" parent="1">
          <mxGeometry x="-30" y="675" width="70" height="60" as="geometry" />
        </mxCell>
        <mxCell id="U90KXrBJ-N6k7Ng19d0M-100" value="&lt;font style=&quot;font-size: 12px;&quot;&gt;前一个区块&lt;/font&gt;" style="rounded=0;whiteSpace=wrap;html=1;fontSize=16;fillColor=default;" vertex="1" parent="1">
          <mxGeometry x="860" y="675" width="70" height="60" as="geometry" />
        </mxCell>
        <mxCell id="U90KXrBJ-N6k7Ng19d0M-101" value="&lt;font style=&quot;font-size: 20px;&quot;&gt;&lt;b&gt;主链&lt;/b&gt;&lt;/font&gt;" style="text;html=1;strokeColor=none;fillColor=none;align=center;verticalAlign=middle;whiteSpace=wrap;rounded=0;fontSize=12;" vertex="1" parent="1">
          <mxGeometry x="20" y="300" width="60" height="30" as="geometry" />
        </mxCell>
        <mxCell id="U90KXrBJ-N6k7Ng19d0M-102" value="&lt;font style=&quot;font-size: 20px;&quot;&gt;&lt;b&gt;1号子链-2号区块&lt;/b&gt;&lt;/font&gt;" style="text;html=1;strokeColor=none;fillColor=none;align=center;verticalAlign=middle;whiteSpace=wrap;rounded=0;fontSize=12;" vertex="1" parent="1">
          <mxGeometry x="-20" y="640" width="190" height="30" as="geometry" />
        </mxCell>
        <mxCell id="U90KXrBJ-N6k7Ng19d0M-110" value="tx2" style="rounded=0;whiteSpace=wrap;html=1;fillColor=default;" vertex="1" parent="1">
          <mxGeometry x="270" y="910" width="30" height="30" as="geometry" />
        </mxCell>
        <mxCell id="U90KXrBJ-N6k7Ng19d0M-111" style="edgeStyle=orthogonalEdgeStyle;rounded=0;orthogonalLoop=1;jettySize=auto;html=1;entryX=0.5;entryY=0;entryDx=0;entryDy=0;fontSize=20;" edge="1" parent="1" source="U90KXrBJ-N6k7Ng19d0M-112" target="U90KXrBJ-N6k7Ng19d0M-110">
          <mxGeometry relative="1" as="geometry" />
        </mxCell>
        <mxCell id="U90KXrBJ-N6k7Ng19d0M-112" value="hash1" style="rounded=0;whiteSpace=wrap;html=1;fillColor=default;" vertex="1" parent="1">
          <mxGeometry x="260" y="860" width="50" height="30" as="geometry" />
        </mxCell>
        <mxCell id="U90KXrBJ-N6k7Ng19d0M-115" value="区块序号" style="rounded=0;whiteSpace=wrap;html=1;fillColor=default;" vertex="1" parent="1">
          <mxGeometry x="302.5" y="370" width="75" height="30" as="geometry" />
        </mxCell>
        <mxCell id="U90KXrBJ-N6k7Ng19d0M-116" value="区块序号" style="rounded=0;whiteSpace=wrap;html=1;fillColor=default;" vertex="1" parent="1">
          <mxGeometry x="302.5" y="700" width="75" height="30" as="geometry" />
        </mxCell>
      </root>
    </mxGraphModel>
  </diagram>
</mxfile>
